# xmcd CD database file
# Generated: Sam Apr 19 00:59:40 2003 by KSCD
# 
# Track frame offsets:
#       150
#       26162
#       43082
#       67945
#       80957
#       99087
#       125122
#       143577
#       162900
#       182155
#       194732
#       209025
#       229327
#
# Disc length: 3264 seconds
#
# Revision: 9
# Processed by: cddbd v1.4PL0 Copyright (c) Steve Scherf et al.
# Submitted via: Kscd 1.3.3
#
DISCID=c40cbe0d
DTITLE=Glenn Kaiser - Time Will Tell
DYEAR=1900
DGENRE=
TTITLE0=Memory
TTITLE1=Postmodern, Existenial, Ivy League Blues 
TTITLE2=Ya Don't Say
TTITLE3=Contact
TTITLE4=Good Hope and Philadelphia
TTITLE5=Drive Me Down To Shonkin
TTITLE6=Walking On Serpents
TTITLE7=Deliver
TTITLE8=Clear Blue Sky
TTITLE9=Follywood Green
TTITLE10=Plant The Seed Again
TTITLE11=One More Step
TTITLE12=My Strength, My Song
EXTD=
EXTT0=
EXTT1=
EXTT2=
EXTT3=
EXTT4=
EXTT5=
EXTT6=
EXTT7=
EXTT8=
EXTT9=
EXTT10=
EXTT11=
EXTT12=
PLAYORDER=
